<svg width="30" height="30" viewBox="0 0 30 30" fill="none" xmlns="http://www.w3.org/2000/svg">
<path d="M20.625 0H9.375C6.8886 0 4.50403 0.98772 2.74587 2.74587C0.98772 4.50403 0 6.8886 0 9.375L0 20.625C0 23.1114 0.98772 25.496 2.74587 27.2541C4.50403 29.0123 6.8886 30 9.375 30H20.625C23.1114 30 25.496 29.0123 27.2541 27.2541C29.0123 25.496 30 23.1114 30 20.625V9.375C30 6.8886 29.0123 4.50403 27.2541 2.74587C25.496 0.98772 23.1114 0 20.625 0ZM27.1875 20.625C27.1875 24.2437 24.2437 27.1875 20.625 27.1875H9.375C5.75625 27.1875 2.8125 24.2437 2.8125 20.625V9.375C2.8125 5.75625 5.75625 2.8125 9.375 2.8125H20.625C24.2437 2.8125 27.1875 5.75625 27.1875 9.375V20.625Z" fill="white"/>
<path d="M15 7.49902C13.0109 7.49902 11.1032 8.2892 9.6967 9.69572C8.29018 11.1022 7.5 13.0099 7.5 14.999C7.5 16.9881 8.29018 18.8958 9.6967 20.3023C11.1032 21.7088 13.0109 22.499 15 22.499C16.9891 22.499 18.8968 21.7088 20.3033 20.3023C21.7098 18.8958 22.5 16.9881 22.5 14.999C22.5 13.0099 21.7098 11.1022 20.3033 9.69572C18.8968 8.2892 16.9891 7.49902 15 7.49902ZM15 19.6865C13.7573 19.685 12.5658 19.1907 11.6871 18.3119C10.8083 17.4332 10.314 16.2418 10.3125 14.999C10.3125 12.4134 12.4162 10.3115 15 10.3115C17.5837 10.3115 19.6875 12.4134 19.6875 14.999C19.6875 17.5828 17.5837 19.6865 15 19.6865Z" fill="white"/>
<path d="M23.0619 7.93649C23.6138 7.93649 24.0612 7.48906 24.0612 6.93712C24.0612 6.38518 23.6138 5.93774 23.0619 5.93774C22.5099 5.93774 22.0625 6.38518 22.0625 6.93712C22.0625 7.48906 22.5099 7.93649 23.0619 7.93649Z" fill="white"/>
</svg>
