<svg width="19" height="18" viewBox="0 0 19 18" fill="none" xmlns="http://www.w3.org/2000/svg">
<path d="M18.4196 6.65045C17.7052 5.48057 16.804 4.43559 15.7519 3.55698L17.9677 1.34115C18.2713 1.02676 18.2626 0.525784 17.9482 0.222156C17.6415 -0.0740521 17.1553 -0.0740521 16.8487 0.222156L14.4389 2.63504C12.9451 1.74779 11.2374 1.28532 9.49998 1.29763C4.60058 1.29763 1.80862 4.65148 0.580417 6.65049C-0.193472 7.90221 -0.193472 9.48382 0.580417 10.7356C1.29484 11.9055 2.196 12.9504 3.24815 13.829L1.03232 16.0449C0.71793 16.3485 0.709213 16.8495 1.01284 17.1639C1.31647 17.4783 1.81748 17.487 2.13183 17.1833C2.13843 17.177 2.14492 17.1705 2.1513 17.1639L4.56656 14.7486C6.05851 15.6358 7.76424 16.099 9.49998 16.0884C14.3994 16.0884 17.1914 12.7345 18.4195 10.7355C19.1935 9.48382 19.1935 7.90221 18.4196 6.65045ZM4.75178 8.69301C4.74729 6.07499 6.86594 3.94904 9.48396 3.94455C10.4745 3.94285 11.4408 4.25152 12.2469 4.82717L11.0978 5.97624C10.6154 5.68534 10.0633 5.53028 9.50002 5.52753C7.75178 5.52753 6.33454 6.94477 6.33454 8.69301C6.33729 9.25631 6.49235 9.8084 6.78325 10.2908L5.63418 11.4399C5.06038 10.6389 4.75182 9.67831 4.75178 8.69301ZM9.50002 13.4413C8.51472 13.4412 7.55417 13.1327 6.75316 12.5589L7.90224 11.4098C8.38463 11.7007 8.93672 11.8557 9.50002 11.8585C11.2483 11.8585 12.6655 10.4413 12.6655 8.69301C12.6628 8.12972 12.5077 7.57762 12.2168 7.09523L13.3659 5.94616C14.8873 8.07671 14.3935 11.0372 12.2629 12.5586C11.4568 13.1343 10.4906 13.443 9.50002 13.4413Z" fill="#747474"/>
</svg>
