<svg width="25" height="24" viewBox="0 0 25 24" fill="none" xmlns="http://www.w3.org/2000/svg">
<path d="M21.0074 22.9997C21.9187 22.9997 22.6574 22.2609 22.6574 21.3497C22.6574 20.4385 21.9187 19.6997 21.0074 19.6997C20.0962 19.6997 19.3574 20.4385 19.3574 21.3497C19.3574 22.2609 20.0962 22.9997 21.0074 22.9997Z" fill="white" stroke="#6E7B8F" stroke-width="1.8" stroke-linecap="round" stroke-linejoin="round"/>
<path d="M10.0074 22.9997C10.9187 22.9997 11.6574 22.2609 11.6574 21.3497C11.6574 20.4385 10.9187 19.6997 10.0074 19.6997C9.09615 19.6997 8.35742 20.4385 8.35742 21.3497C8.35742 22.2609 9.09615 22.9997 10.0074 22.9997Z" fill="white" stroke="#6E7B8F" stroke-width="1.8" stroke-linecap="round" stroke-linejoin="round"/>
<path d="M5.05757 3.2H23.7576L21.5576 15.3H7.25757L5.05757 3.2ZM5.05757 3.2C4.87423 2.46666 3.95757 1 1.75757 1L5.05757 3.2Z" fill="white"/>
<path d="M5.05757 3.2H23.7576L21.5576 15.3H7.25757L5.05757 3.2ZM5.05757 3.2C4.87423 2.46666 3.95757 1 1.75757 1" stroke="#6E7B8F" stroke-width="1.8" stroke-linecap="round" stroke-linejoin="round"/>
<path d="M21.5583 15.3003H7.25835H5.3122C3.34946 15.3003 2.30835 16.1596 2.30835 17.5003C2.30835 18.841 3.34946 19.7003 5.3122 19.7003H21.0084" fill="white"/>
<path d="M21.5584 15.3003H7.25835H5.3122C3.34946 15.3003 2.30835 16.1596 2.30835 17.5003C2.30835 18.841 3.34946 19.7003 5.3122 19.7003H21.0084" stroke="#6E7B8F" stroke-width="1.8" stroke-linecap="round" stroke-linejoin="round"/>
</svg>
