<svg width="31" height="30" viewBox="0 0 31 30" fill="none" xmlns="http://www.w3.org/2000/svg">
<path d="M0.803223 3.48485C0.803223 2.47473 1.14107 1.64139 1.81674 0.984848C2.4924 0.328273 3.3708 0 4.45187 0C5.51366 0 6.37271 0.323212 7.02909 0.969697C7.70476 1.63636 8.0426 2.50503 8.0426 3.57576C8.0426 4.54545 7.71443 5.35352 7.05805 6C6.38238 6.66667 5.49434 7 4.39396 7H4.365C3.30321 7 2.44416 6.66667 1.78778 6C1.1314 5.33333 0.803223 4.49494 0.803223 3.48485ZM1.17967 30V9.75758H7.60824V30H1.17967ZM11.17 30H17.5986V18.697C17.5986 17.9899 17.6758 17.4444 17.8302 17.0606C18.1005 16.3737 18.5108 15.7929 19.0609 15.3182C19.6111 14.8434 20.3013 14.6061 21.1314 14.6061C23.2936 14.6061 24.3747 16.1313 24.3747 19.1818V30H30.8032V18.3939C30.8032 15.404 30.1276 13.1364 28.7762 11.5909C27.4248 10.0455 25.6391 9.27273 23.4191 9.27273C20.9287 9.27273 18.9886 10.3939 17.5986 12.6364V12.697H17.5696L17.5986 12.6364V9.75758H11.17C11.2086 10.404 11.2279 12.4141 11.2279 15.7879C11.2279 19.1616 11.2086 23.899 11.17 30Z" fill="white"/>
</svg>
