<svg width="24" height="23" viewBox="0 0 24 23" fill="none" xmlns="http://www.w3.org/2000/svg">
<path d="M12.3721 1C6.57308 1 1.87207 5.70101 1.87207 11.5C1.87207 17.2989 6.57308 22 12.3721 22C18.171 22 22.8721 17.2989 22.8721 11.5C22.8721 5.70101 18.171 1 12.3721 1Z" stroke="#6E7B8F" stroke-width="2" stroke-linecap="round" stroke-linejoin="round"/>
<path d="M4.25732 18.163C4.25732 18.163 6.59779 15.175 12.3728 15.175C18.1478 15.175 20.4883 18.163 20.4883 18.163" stroke="#6E7B8F" stroke-width="2" stroke-linecap="round" stroke-linejoin="round"/>
<path d="M12.3717 11.5C14.1114 11.5 15.5217 10.0897 15.5217 8.34995C15.5217 6.61026 14.1114 5.19995 12.3717 5.19995C10.6319 5.19995 9.22168 6.61026 9.22168 8.34995C9.22168 10.0897 10.6319 11.5 12.3717 11.5Z" stroke="#6E7B8F" stroke-width="2" stroke-linecap="round" stroke-linejoin="round"/>
</svg>



